<?xml version="1.0" standalone="no"?>
<!DOCTYPE svg PUBLIC "-//W3C//DTD SVG 20010904//EN"
 "http://www.w3.org/TR/2001/REC-SVG-20010904/DTD/svg10.dtd">
<svg version="1.0" xmlns="http://www.w3.org/2000/svg"
 width="512.000000pt" height="512.000000pt" viewBox="0 0 512.000000 512.000000"
 preserveAspectRatio="xMidYMid meet">
<metadata>
Created by potrace 1.14, written by Peter Selinger 2001-2017
</metadata>
<g transform="translate(0.000000,512.000000) scale(0.100000,-0.100000)"
fill="#000000" stroke="none">
<path d="M3475 5096 c-22 -22 -25 -34 -26 -103 -1 -43 -2 -89 -4 -103 -8 -65
-15 -113 -20 -119 -2 -4 -7 -23 -10 -41 -16 -89 -95 -259 -172 -368 l-45 -63
-58 88 c-52 78 -173 214 -240 268 -41 33 -173 120 -200 131 -50 22 -105 -5
-113 -54 -2 -13 2 -54 9 -90 32 -164 37 -484 9 -592 -2 -8 -7 -35 -10 -60 -6
-46 -8 -53 -46 -175 -27 -86 -76 -191 -127 -269 l-38 -60 -189 -2 c-105 -1
-201 -4 -215 -7 -14 -3 -47 -10 -75 -16 -82 -17 -87 -18 -175 -46 -130 -42
-288 -112 -405 -181 -22 -12 -47 -26 -55 -31 -53 -26 -236 -161 -369 -271
-333 -277 -603 -591 -749 -873 -104 -199 -149 -367 -149 -554 0 -178 33 -316
117 -486 94 -190 195 -325 390 -519 203 -204 374 -325 583 -414 56 -24 115
-45 139 -50 13 -2 53 -11 90 -19 69 -15 286 -16 358 -3 151 29 374 121 520
216 166 108 305 225 495 415 147 146 224 232 328 365 225 288 388 626 442 915
3 17 8 41 12 55 3 14 7 109 7 212 l2 188 41 30 c55 40 202 112 283 138 209 68
438 90 697 68 66 -6 87 -9 146 -22 82 -18 132 2 140 56 5 31 -7 59 -57 135
-53 82 -117 159 -190 229 -64 61 -184 151 -224 167 -31 12 -24 21 61 77 96 64
204 115 307 146 122 36 172 44 298 45 74 1 86 4 107 26 16 16 25 35 25 57 0
27 -14 46 -103 133 -109 107 -261 216 -383 274 l-71 34 32 91 c44 121 54 196
51 351 -5 216 -16 226 -251 231 -148 2 -247 -14 -371 -63 l-51 -20 -34 71
c-58 123 -166 273 -273 381 -84 84 -107 102 -134 103 -23 2 -40 -5 -57 -22z"/>
</g>
</svg>
